/* XPM */
static const char* OPEN_LEVEL_XPM[] = {
	"11 11 2 1",
	".  c None",
	"@  c \\#000000",
	"...........",
	"...........",
	"...........",
	"...........",
	".@@@@@@@@@.",
	"..@@@@@@@..",
	"...@@@@@...",
	"....@@@....",
	".....@.....",
	"...........",
	"..........."
	};
